<?xml version="1.0" encoding="UTF-8"?><svg id="uuid-01fadca0-5d58-471c-9b45-e7665888ad61" xmlns="http://www.w3.org/2000/svg" viewBox="0 0 150 100"><defs><style>.uuid-d54d356b-4251-48a6-a8e2-40b4749bf44b{fill:#898989;}.uuid-f040e6c9-fc77-471b-b161-32a5799a86aa{fill:#36f;}.uuid-7a651b24-03ec-481d-8436-ab1d13d56751{fill:#464646;}.uuid-ae6d50df-78c4-4b1c-abc8-8fc1099a1e58{fill:#aeaead;}.uuid-188a6b4f-547a-47bc-b9ff-8f40c2532064{fill:#d2d2d2;}</style></defs><polygon class="uuid-7a651b24-03ec-481d-8436-ab1d13d56751" points="58.67 59.3 26.23 78.03 26.23 40.57 58.67 21.84 58.67 59.3"/><polygon class="uuid-d54d356b-4251-48a6-a8e2-40b4749bf44b" points="58.89 96.89 26.23 78.03 58.67 59.3 91.33 78.16 58.89 96.89"/><polygon class="uuid-ae6d50df-78c4-4b1c-abc8-8fc1099a1e58" points="123.77 59.43 91.33 78.16 91.33 40.7 123.77 21.97 123.77 59.43"/><polygon class="uuid-188a6b4f-547a-47bc-b9ff-8f40c2532064" points="91.33 40.7 58.67 21.84 91.11 3.11 123.77 21.97 91.33 40.7"/><path class="uuid-f040e6c9-fc77-471b-b161-32a5799a86aa" d="M110.68,59.23l-10.78,6.22-2.18,9.01-6.39,3.69,11.37-44.02,5.04-2.91,11.4,30.88-6.29,3.63-2.18-6.5ZM108.64,53.08l-3.35-10.07-3.35,13.94,6.7-3.87Z"/><path class="uuid-f040e6c9-fc77-471b-b161-32a5799a86aa" d="M117.42,25.64l6.36-3.67v37.46s-6.36,3.67-6.36,3.67V25.64Z"/><path class="uuid-f040e6c9-fc77-471b-b161-32a5799a86aa" d="M26.23,78.03l18.15-11.07c4.23-2.58,8.48-4.05,12.74-4.41,4.28-.36,8.1.44,11.46,2.39s4.71,4.17,4.17,6.71c-.54,2.53-2.95,5.06-7.21,7.56l-8.56,5.04,11.88,6.87-9.97,5.75-32.67-18.86ZM57.69,76.28c1.86-1.11,2.9-2.12,3.14-3.03.24-.92-.34-1.78-1.72-2.58s-2.86-1.13-4.43-.99c-1.57.15-3.27.78-5.12,1.89l-7.11,4.29,8.08,4.68,7.15-4.26Z"/></svg>